<?xml version="1.0" standalone="no"?>
<!DOCTYPE svg PUBLIC "-//W3C//DTD SVG 20010904//EN"
 "http://www.w3.org/TR/2001/REC-SVG-20010904/DTD/svg10.dtd">
<svg version="1.0" xmlns="http://www.w3.org/2000/svg"
 width="1280.000000pt" height="999.000000pt" viewBox="0 0 1280.000000 999.000000"
 preserveAspectRatio="xMidYMid meet">

<g transform="translate(0.000000,999.000000) scale(0.100000,-0.100000)"
fill="#000000" stroke="none">
<path d="M1305 9980 c-385 -3 -677 -7 -650 -8 46 -3 48 -4 21 -12 -16 -5 -33
-7 -38 -4 -4 3 -5 -2 -2 -10 4 -10 20 -17 43 -17 25 -1 29 -3 13 -6 l-24 -5
23 -24 c21 -23 24 -23 30 -7 5 15 10 13 38 -17 25 -28 28 -36 15 -40 -13 -5
-13 -8 4 -24 19 -17 20 -17 24 1 3 15 9 13 36 -17 26 -28 29 -36 16 -40 -13
-5 -13 -8 4 -24 19 -17 20 -17 24 1 3 15 9 13 36 -17 26 -28 29 -36 16 -40
-13 -5 -13 -8 4 -24 19 -17 20 -17 24 1 3 15 9 13 36 -17 26 -28 29 -36 16
-40 -13 -5 -13 -8 4 -24 19 -17 20 -17 24 1 3 15 9 13 36 -17 26 -28 29 -36
17 -38 -15 -3 -15 -6 1 -24 17 -18 19 -18 25 -1 5 15 10 13 38 -17 25 -28 28
-36 16 -38 -15 -3 -15 -6 1 -24 17 -18 19 -18 25 -1 5 15 10 13 38 -17 25 -28
28 -36 16 -38 -15 -3 -15 -6 1 -24 17 -18 19 -18 25 -1 5 15 10 13 38 -17 25
-28 28 -36 15 -40 -13 -5 -13 -8 4 -24 19 -17 20 -17 24 1 3 15 9 13 36 -17
26 -28 29 -36 16 -40 -13 -5 -13 -8 4 -24 19 -17 20 -17 24 1 3 15 9 13 36
-17 26 -28 29 -36 16 -40 -13 -5 -13 -8 4 -24 19 -17 20 -17 24 1 3 15 9 13
36 -17 26 -28 29 -36 17 -38 -15 -3 -15 -6 1 -24 17 -18 19 -18 25 -1 5 15 10
13 38 -17 25 -28 28 -36 16 -38 -15 -3 -15 -6 1 -24 17 -18 19 -18 25 -1 5 15
10 13 38 -17 25 -28 28 -36 16 -38 -15 -3 -15 -6 1 -24 17 -18 19 -18 25 -1 5
15 10 13 38 -17 25 -28 28 -36 16 -38 -15 -3 -15 -6 1 -24 17 -18 19 -18 25
-1 5 15 10 13 38 -17 25 -28 28 -36 16 -38 -15 -3 -15 -6 1 -24 17 -18 19 -18
25 -1 5 15 10 13 38 -17 25 -28 28 -36 15 -40 -13 -5 -13 -8 4 -24 19 -17 20
-17 24 1 3 15 9 13 36 -17 26 -28 29 -36 16 -40 -13 -5 -13 -8 4 -24 19 -17
20 -17 24 1 3 15 9 13 36 -17 26 -28 29 -36 16 -40 -13 -5 -13 -8 4 -24 19
-17 20 -17 24 1 3 15 9 13 36 -17 26 -28 29 -36 16 -40 -13 -5 -13 -8 4 -24
19 -17 20 -17 24 1 3 15 9 13 36 -17 26 -28 29 -36 16 -40 -13 -5 -13 -8 4
-24 19 -17 20 -17 24 1 3 15 9 13 36 -17 26 -28 29 -36 16 -40 -13 -5 -13 -8
4 -24 19 -17 20 -17 24 1 3 15 9 13 36 -17 26 -28 29 -36 17 -38 -15 -3 -15
-6 1 -24 17 -18 19 -18 25 -1 5 15 10 13 38 -17 25 -28 28 -36 16 -38 -15 -3
-15 -6 1 -24 17 -18 19 -18 25 -1 5 15 10 13 38 -17 25 -28 28 -36 16 -38 -15
-3 -15 -6 1 -24 17 -18 19 -18 25 -1 5 15 10 13 38 -17 25 -28 28 -36 16 -38
-15 -3 -15 -6 1 -24 17 -18 19 -18 25 -1 5 15 10 13 38 -17 25 -28 28 -36 16
-38 -15 -3 -15 -6 1 -24 17 -18 19 -18 25 -1 5 15 10 13 38 -17 25 -28 28 -36
16 -38 -15 -3 -15 -6 1 -24 17 -18 19 -18 25 -1 5 15 10 13 38 -17 25 -28 28
-36 16 -38 -15 -3 -15 -6 1 -24 17 -18 19 -18 25 -1 5 15 10 13 38 -17 25 -28
28 -36 16 -38 -15 -3 -15 -6 1 -24 17 -18 19 -18 25 -1 5 15 10 13 38 -17 25
-28 28 -36 16 -38 -15 -3 -15 -6 1 -24 17 -18 19 -18 25 -1 5 15 10 13 38 -17
25 -28 28 -36 16 -38 -15 -3 -15 -6 1 -24 17 -18 19 -18 25 -1 5 15 10 13 38
-17 25 -28 28 -36 15 -40 -13 -5 -13 -8 4 -24 19 -17 20 -17 24 1 3 15 9 13
36 -17 26 -28 29 -36 16 -40 -13 -5 -13 -8 4 -24 19 -17 20 -17 24 1 3 15 9
13 36 -17 26 -28 29 -36 16 -40 -13 -5 -13 -8 4 -24 19 -17 20 -17 24 1 3 15
9 13 36 -17 26 -28 29 -36 16 -40 -13 -5 -13 -8 4 -24 19 -17 20 -17 24 1 3
15 9 13 36 -17 26 -28 29 -36 16 -40 -13 -5 -13 -8 4 -24 19 -17 20 -17 24 1
3 15 9 13 36 -17 26 -28 29 -36 16 -40 -13 -5 -13 -8 4 -24 19 -17 20 -17 24
1 3 15 9 13 36 -17 26 -28 29 -36 16 -40 -13 -5 -13 -8 4 -24 19 -17 20 -17
24 1 3 15 9 13 36 -17 26 -28 29 -36 16 -40 -13 -5 -13 -8 4 -24 19 -17 20
-17 24 1 3 15 9 13 36 -17 26 -28 29 -36 16 -40 -13 -5 -13 -8 4 -24 19 -17
20 -17 24 1 3 15 9 13 36 -17 26 -28 29 -36 16 -40 -13 -5 -13 -8 4 -24 19
-17 20 -17 24 1 3 15 9 13 36 -17 26 -28 29 -36 16 -40 -13 -5 -13 -8 4 -24
19 -17 20 -17 24 1 3 15 9 13 36 -17 26 -28 29 -36 16 -40 -13 -5 -13 -8 4
-24 19 -17 20 -17 24 1 3 15 9 13 36 -17 26 -28 29 -36 16 -40 -13 -5 -13 -8
4 -24 19 -17 20 -17 24 1 3 15 9 13 36 -17 26 -28 29 -36 17 -38 -15 -3 -15
-6 1 -24 17 -18 19 -18 25 -1 5 15 10 13 38 -17 25 -28 28 -36 16 -38 -15 -3
-15 -6 1 -24 17 -18 19 -18 25 -1 5 15 10 13 38 -17 25 -28 28 -36 16 -38 -15
-3 -15 -6 1 -24 17 -18 19 -18 25 -1 5 15 10 13 38 -17 25 -28 28 -36 16 -38
-15 -3 -15 -6 1 -24 17 -18 19 -18 25 -1 5 15 10 13 38 -17 25 -28 28 -36 16
-38 -15 -3 -15 -6 1 -24 17 -18 19 -18 25 -1 5 15 10 13 38 -17 25 -28 28 -36
16 -38 -15 -3 -15 -6 1 -24 17 -18 19 -18 25 -1 5 15 10 13 38 -17 25 -28 28
-36 16 -38 -15 -3 -15 -6 1 -24 17 -18 19 -18 25 -1 5 15 10 13 38 -17 25 -28
28 -36 16 -38 -15 -3 -15 -6 1 -24 17 -18 19 -18 25 -1 5 15 10 13 38 -17 25
-28 28 -36 16 -38 -15 -3 -15 -6 1 -24 17 -18 19 -18 25 -1 5 15 10 13 38 -17
25 -28 28 -36 16 -38 -15 -3 -15 -6 1 -24 17 -18 19 -18 25 -1 5 15 10 13 38
-17 25 -28 28 -36 16 -38 -15 -3 -15 -6 1 -24 17 -18 19 -18 25 -1 5 15 10 13
38 -17 25 -28 28 -36 16 -38 -15 -3 -15 -6 1 -24 17 -18 19 -18 25 -1 5 15 10
13 38 -17 25 -28 28 -36 16 -38 -15 -3 -15 -6 1 -24 17 -18 19 -18 25 -1 5 15
10 13 38 -17 25 -28 28 -36 16 -38 -15 -3 -15 -6 1 -24 17 -18 19 -18 25 -1 5
15 10 13 38 -17 25 -28 28 -36 16 -38 -15 -3 -15 -6 1 -24 17 -18 19 -18 25
-1 5 15 10 13 38 -17 25 -28 28 -36 16 -38 -15 -3 -15 -6 1 -24 17 -18 19 -18
25 -1 5 15 10 13 38 -17 25 -28 28 -36 16 -38 -15 -3 -15 -6 1 -24 17 -18 19
-18 25 -1 5 15 10 13 38 -17 25 -28 28 -36 15 -40 -13 -5 -13 -8 4 -24 19 -17
20 -17 24 1 3 15 9 13 36 -17 26 -28 29 -36 17 -38 -15 -3 -15 -6 1 -24 17
-18 19 -18 25 -1 5 15 10 13 38 -17 25 -28 28 -36 15 -40 -13 -5 -13 -8 4 -24
19 -17 20 -17 24 1 3 15 9 13 36 -17 26 -28 29 -36 16 -40 -13 -5 -13 -8 4
-24 19 -17 20 -17 24 1 3 15 9 13 36 -17 26 -28 29 -36 16 -40 -13 -5 -13 -8
4 -24 19 -17 20 -17 24 1 3 15 9 13 36 -17 26 -28 29 -36 16 -40 -13 -5 -13
-8 4 -24 19 -17 20 -17 24 1 3 15 9 13 36 -17 26 -28 29 -36 16 -40 -13 -5
-13 -8 4 -24 19 -17 20 -17 24 1 3 15 9 13 36 -17 26 -28 29 -36 16 -40 -13
-5 -13 -8 4 -24 19 -17 20 -17 24 1 3 15 9 13 36 -17 26 -28 29 -36 16 -40
-13 -5 -13 -8 4 -24 19 -17 20 -17 24 1 3 15 9 13 36 -17 26 -28 29 -36 16
-40 -13 -5 -13 -8 4 -24 19 -17 20 -17 24 1 3 15 9 13 36 -17 26 -28 29 -36
16 -40 -13 -5 -13 -8 4 -24 19 -17 20 -17 24 1 3 15 9 13 36 -17 26 -28 29
-36 16 -40 -13 -5 -13 -8 4 -24 19 -17 20 -17 24 1 3 15 9 13 36 -17 26 -28
29 -36 16 -40 -13 -5 -13 -8 4 -24 19 -17 20 -17 24 1 3 15 9 13 36 -17 26
-28 29 -36 16 -40 -13 -5 -13 -8 4 -24 19 -17 20 -17 24 1 3 15 9 13 36 -17
26 -28 29 -36 16 -40 -13 -5 -13 -8 4 -24 19 -17 20 -17 24 1 3 15 9 13 36
-17 26 -28 29 -36 16 -40 -13 -5 -13 -8 4 -24 19 -17 20 -17 24 1 3 15 9 13
36 -17 26 -28 29 -36 16 -40 -13 -5 -13 -8 4 -24 19 -17 20 -17 24 1 3 15 9
13 36 -17 26 -28 29 -36 16 -40 -13 -5 -13 -8 4 -24 19 -17 20 -17 24 1 3 15
9 13 36 -17 26 -28 29 -36 16 -40 -13 -5 -13 -8 4 -24 19 -17 20 -17 24 1 3
15 9 13 36 -17 26 -28 29 -36 16 -40 -13 -5 -13 -8 4 -24 19 -17 20 -17 24 1
3 15 9 13 36 -17 26 -28 29 -36 16 -40 -13 -5 -13 -8 4 -24 19 -17 20 -17 24
1 3 15 9 13 36 -17 26 -28 29 -36 16 -40 -13 -5 -13 -8 4 -24 19 -17 20 -17
24 1 3 15 9 13 36 -17 26 -28 29 -36 16 -40 -13 -5 -13 -8 4 -24 19 -17 20
-17 24 1 3 15 9 13 36 -17 26 -28 29 -36 16 -40 -13 -5 -13 -8 4 -24 19 -17
20 -17 24 1 3 15 9 13 36 -17 26 -28 29 -36 16 -40 -13 -5 -13 -8 4 -24 19
-17 20 -17 24 1 3 15 9 13 36 -17 26 -28 29 -36 16 -40 -13 -5 -13 -8 4 -24
19 -17 20 -17 24 1 3 15 9 13 36 -17 26 -28 29 -36 16 -40 -13 -5 -13 -8 4
-24 19 -17 20 -17 24 1 3 15 9 13 36 -17 26 -28 29 -36 16 -40 -13 -5 -13 -8
4 -24 19 -17 20 -17 24 1 3 15 9 13 36 -17 26 -28 29 -36 17 -38 -15 -3 -15
-6 1 -24 17 -18 19 -18 25 -1 5 15 10 13 38 -17 25 -28 28 -36 16 -38 -15 -3
-15 -6 1 -24 17 -18 19 -18 25 -1 5 15 10 13 38 -17 25 -28 28 -36 16 -38 -15
-3 -15 -6 1 -24 17 -18 19 -18 25 -1 5 15 10 13 38 -17 25 -28 28 -36 16 -38
-15 -3 -15 -6 1 -24 17 -18 19 -18 25 -1 5 15 10 13 38 -17 25 -28 28 -36 16
-38 -15 -3 -15 -6 1 -24 17 -18 19 -18 25 -1 5 15 10 13 38 -17 25 -28 28 -36
16 -38 -15 -3 -15 -6 1 -24 17 -18 19 -18 25 -1 5 15 10 13 38 -17 25 -28 28
-36 16 -38 -15 -3 -15 -6 1 -24 17 -18 19 -18 25 -1 5 15 10 13 38 -17 25 -28
28 -36 16 -38 -15 -3 -15 -6 1 -24 17 -18 19 -18 25 -1 5 15 10 13 38 -17 25
-28 28 -36 16 -38 -15 -3 -15 -6 1 -24 17 -18 19 -18 25 -1 5 15 10 13 38 -17
25 -28 28 -36 16 -38 -15 -3 -15 -6 1 -24 17 -18 19 -18 25 -1 5 15 10 13 38
-17 25 -28 28 -36 16 -38 -15 -3 -15 -6 1 -24 17 -18 19 -18 25 -1 5 15 10 13
38 -17 25 -28 28 -36 16 -38 -15 -3 -15 -6 1 -24 17 -18 19 -18 25 -1 5 15 10
13 38 -17 25 -28 28 -36 16 -38 -15 -3 -15 -6 1 -24 17 -18 19 -18 25 -1 5 15
10 13 38 -17 25 -28 28 -36 16 -38 -15 -3 -15 -6 1 -24 17 -18 19 -18 25 -1 5
15 10 13 38 -17 25 -28 28 -36 16 -38 -15 -3 -15 -6 1 -24 17 -18 19 -18 25
-1 5 15 10 13 38 -17 25 -28 28 -36 16 -38 -15 -3 -15 -6 1 -24 17 -18 19 -18
25 -1 5 15 10 13 38 -17 25 -28 28 -36 16 -38 -15 -3 -15 -6 1 -24 17 -18 19
-18 25 -1 5 15 10 13 38 -17 25 -28 28 -36 15 -40 -13 -5 -13 -8 4 -24 19 -17
20 -17 24 1 3 15 9 13 36 -17 26 -28 29 -36 16 -40 -13 -5 -13 -8 4 -24 19
-17 20 -17 24 1 3 15 9 13 36 -17 26 -28 29 -36 16 -40 -13 -5 -13 -8 4 -24
19 -17 20 -17 24 1 3 15 9 13 36 -17 26 -28 29 -36 16 -40 -13 -5 -13 -8 4
-24 19 -17 20 -17 24 1 3 15 9 13 36 -17 26 -28 29 -36 16 -40 -13 -5 -13 -8
4 -24 19 -17 20 -17 24 1 3 15 9 13 36 -17 26 -28 29 -36 16 -40 -13 -5 -13
-8 4 -24 19 -17 20 -17 24 1 3 15 9 13 36 -17 26 -28 29 -36 16 -40 -13 -5
-13 -8 4 -24 19 -17 20 -17 24 1 3 15 9 13 36 -17 26 -28 29 -36 16 -40 -13
-5 -13 -8 4 -24 19 -17 20 -17 24 1 3 15 9 13 36 -17 26 -28 29 -36 16 -40
-13 -5 -13 -8 4 -24 19 -17 20 -17 24 1 3 15 9 13 36 -17 26 -28 29 -36 16
-40 -13 -5 -13 -8 4 -24 19 -17 20 -17 24 1 3 15 9 13 36 -17 26 -28 29 -36
16 -40 -13 -5 -13 -8 4 -24 19 -17 20 -17 24 1 3 15 9 13 36 -17 26 -28 29
-36 16 -40 -13 -5 -13 -8 4 -24 19 -17 20 -17 24 1 3 15 9 13 36 -17 26 -28
29 -36 16 -40 -13 -5 -13 -8 4 -24 19 -17 20 -17 24 1 3 15 9 13 36 -17 26
-28 29 -36 16 -40 -13 -5 -13 -8 4 -24 19 -17 20 -17 24 1 3 15 9 13 36 -17
26 -28 29 -36 16 -40 -13 -5 -13 -8 4 -24 19 -17 20 -17 24 1 3 15 9 13 36
-17 26 -28 29 -36 16 -40 -13 -5 -13 -8 4 -24 19 -17 20 -17 24 1 3 15 9 13
35 -16 18 -19 30 -38 27 -42 -2 -4 2 -10 8 -12 8 -3 4 -6 -7 -8 -11 -1 -2 -5
20 -9 l40 -7 -42 -2 c-24 0 -43 -5 -43 -10 0 -8 660 -13 1870 -15 l405 -1 3
4993 2 4992 -5397 -2 c-2969 -2 -5713 -5 -6098 -8z"/>
<path d="M476 9897 c3 -10 9 -15 12 -12 3 3 0 11 -7 18 -10 9 -11 8 -5 -6z"/>
<path d="M10468 43 c6 -2 18 -2 25 0 6 3 1 5 -13 5 -14 0 -19 -2 -12 -5z"/>
</g>
</svg>
