<?xml version="1.0" standalone="no"?>
<!DOCTYPE svg PUBLIC "-//W3C//DTD SVG 20010904//EN"
 "http://www.w3.org/TR/2001/REC-SVG-20010904/DTD/svg10.dtd">
<svg version="1.0" xmlns="http://www.w3.org/2000/svg"
 width="1200.000000pt" height="800.000000pt" viewBox="0 0 1200.000000 800.000000"
 preserveAspectRatio="xMidYMid meet">
<metadata>
Created by potrace 1.16, written by Peter Selinger 2001-2019
</metadata>
<g transform="translate(0.000000,800.000000) scale(0.100000,-0.100000)"
fill="#000000" stroke="none">
<path d="M5885 6343 c-184 -41 -337 -158 -415 -317 -52 -107 -67 -173 -75
-338 l-7 -138 -203 0 -203 0 -7 -97 c-3 -54 -10 -156 -15 -228 -5 -71 -25
-389 -46 -705 -20 -316 -40 -579 -44 -583 -11 -12 -136 22 -217 58 -112 51
-171 124 -158 194 13 70 102 178 183 220 13 7 21 15 18 18 -3 3 -36 -12 -73
-32 -231 -129 -338 -246 -351 -387 -4 -51 -1 -66 26 -121 91 -184 340 -294
767 -339 158 -16 847 -16 1063 1 90 7 166 10 169 7 15 -14 -266 -78 -447 -101
-288 -36 -819 -50 -1265 -33 l-180 7 95 -33 c53 -18 149 -46 213 -62 l118 -29
-7 -165 c-4 -91 -8 -172 -8 -180 -1 -13 137 -15 1178 -18 649 -1 1183 1 1187
5 4 5 -6 202 -21 438 -15 237 -30 473 -32 525 l-3 94 147 36 148 35 0 40 c-1
62 -18 286 -23 291 -2 2 -96 -22 -209 -55 -195 -56 -350 -91 -553 -125 -255
-43 -650 -91 -835 -100 -100 -6 -93 -4 145 38 608 106 960 196 1148 293 101
52 246 160 301 225 72 83 99 143 104 230 4 70 2 83 -22 131 -33 65 -93 131
-166 183 -63 46 -131 86 -136 82 -1 -2 17 -23 41 -47 81 -80 106 -178 65 -263
-23 -51 -93 -125 -163 -175 l-45 -33 -6 68 c-4 37 -13 171 -21 297 -8 127 -17
267 -21 313 l-6 82 -203 0 -203 0 -7 138 c-7 155 -22 229 -66 322 -76 163
-215 278 -394 325 -55 14 -211 19 -260 8z m194 -163 c107 -20 218 -93 281
-184 46 -68 69 -151 75 -277 3 -63 8 -126 10 -141 l5 -28 -450 0 -450 0 4 23
c3 12 8 76 11 141 9 181 47 274 151 364 101 90 233 127 363 102z m-702 -870
c-2 -101 6 -117 64 -126 28 -5 41 -1 65 19 27 23 29 31 32 106 2 45 8 81 12
81 15 0 50 -52 60 -91 26 -96 -54 -199 -155 -199 -100 0 -179 97 -160 196 6
33 58 104 75 104 5 0 8 -40 7 -90z m1285 63 c77 -80 56 -201 -42 -250 -54 -28
-92 -29 -146 -4 -93 42 -117 172 -46 254 8 9 18 17 22 17 5 0 10 -36 12 -81 3
-74 6 -83 31 -105 32 -28 56 -30 97 -9 35 18 44 53 35 140 -4 38 -4 65 2 65 5
0 21 -12 35 -27z"/>
<path d="M4870 2260 l0 -300 50 0 50 0 0 300 0 300 -50 0 -50 0 0 -300z"/>
<path d="M6890 2260 l0 -300 30 0 30 0 0 135 c0 156 11 194 61 220 41 22 103
21 136 0 43 -28 53 -71 53 -220 l0 -135 30 0 30 0 0 153 c0 141 -2 158 -23
197 -29 54 -75 80 -144 80 -43 0 -59 -5 -97 -35 l-46 -35 0 120 0 120 -30 0
-30 0 0 -300z"/>
<path d="M3850 2531 c-52 -17 -89 -42 -134 -92 -130 -144 -87 -372 87 -459 50
-25 72 -30 130 -30 89 0 133 14 193 59 133 100 154 304 45 431 -57 67 -118 94
-216 97 -44 1 -91 -1 -105 -6z m177 -101 c52 -23 99 -92 109 -157 18 -121 -74
-233 -190 -233 -58 0 -93 14 -135 53 -44 42 -61 84 -61 152 0 66 16 109 56
149 58 58 143 72 221 36z"/>
<path d="M6449 2520 c-20 -10 -48 -33 -63 -50 -22 -26 -26 -41 -26 -92 0 -56
3 -63 35 -93 33 -32 57 -42 193 -81 76 -21 112 -51 112 -94 0 -68 -49 -103
-140 -102 -64 1 -102 13 -147 48 -39 29 -49 30 -63 3 -15 -27 -2 -42 67 -76
80 -39 201 -44 258 -11 58 34 85 80 85 143 0 85 -47 126 -181 160 -91 23 -117
34 -139 63 -29 36 -26 78 9 113 26 26 36 29 93 29 49 0 76 -6 117 -27 52 -25
54 -26 68 -8 19 27 13 37 -42 65 -68 34 -183 39 -236 10z"/>
<path d="M4524 2386 c-17 -8 -39 -24 -48 -37 l-16 -23 0 32 c0 32 0 32 -50 32
l-50 0 0 -215 0 -215 50 0 50 0 0 146 0 146 29 29 c20 20 39 29 61 29 81 0
100 -42 100 -220 l0 -130 51 0 51 0 -3 168 c-4 145 -7 171 -24 201 -37 63
-128 89 -201 57z"/>
<path d="M5515 2389 c-11 -6 -32 -23 -47 -37 l-28 -26 0 32 c0 32 0 32 -50 32
l-50 0 0 -215 0 -215 49 0 50 0 3 151 3 151 28 24 c40 34 90 32 128 -5 l29
-29 0 -146 0 -146 50 0 50 0 0 163 c0 178 -8 211 -62 250 -32 24 -123 33 -153
16z"/>
<path d="M5954 2381 c-135 -61 -168 -270 -58 -373 80 -75 217 -79 307 -8 l28
23 -27 28 -27 28 -30 -21 c-36 -26 -124 -36 -156 -18 -23 12 -61 66 -61 88 0
9 39 12 160 12 l160 0 0 31 c0 128 -92 229 -210 229 -25 0 -63 -9 -86 -19z
m130 -71 c27 -10 66 -64 66 -90 0 -12 -20 -15 -110 -18 -124 -2 -129 2 -90 66
29 48 79 63 134 42z"/>
<path d="M5110 2175 l0 -215 50 0 50 0 0 215 0 215 -50 0 -50 0 0 -215z"/>
<path d="M7517 2380 c-50 -15 -98 -61 -124 -118 -66 -142 24 -299 177 -310
140 -10 239 81 240 221 0 152 -142 252 -293 207z m162 -72 c38 -24 70 -86 71
-138 0 -97 -92 -180 -182 -165 -89 15 -151 116 -128 208 29 112 139 156 239
95z"/>
<path d="M8082 2375 c-19 -8 -47 -29 -63 -46 l-29 -31 0 41 c0 39 -2 41 -30
41 l-30 0 0 -274 c0 -240 2 -275 16 -280 42 -16 44 -10 44 101 l0 107 28 -26
c48 -45 90 -61 151 -56 135 10 220 144 182 286 -14 50 -67 113 -115 136 -42
20 -110 20 -154 1z m145 -69 c64 -42 86 -143 47 -221 -52 -107 -206 -104 -261
5 -29 55 -29 101 -2 157 42 88 135 113 216 59z"/>
<path d="M6276 1795 c-37 -35 -37 -105 0 -134 88 -69 196 54 118 133 -35 34
-82 35 -118 1z m108 -17 c36 -50 5 -118 -52 -118 -36 0 -65 31 -65 70 0 64 83
97 117 48z"/>
<path d="M6517 1813 c-11 -10 -8 -161 3 -168 6 -4 10 6 10 23 0 27 4 30 40 35
23 3 47 11 55 17 23 19 19 66 -7 84 -22 16 -89 22 -101 9z"/>
</g>
</svg>
